#!OML:ASF F:\VICON\USERDATA\INSTALL\rory3\rory3.ASF
:FULLY-SPECIFIED
:DEGREES
4353
root -1.35047 17.2877 0.0925383 19.0619 59.1104 -2.34907
lowerback 11.9115 9.51658 -2.2069
upperback 3.64599 12.2522 -4.21002
thorax -2.23326 6.14603 -4.80363
lowerneck -16.2885 -12.9329 -16.6986
upperneck 18.6595 -15.9522 10.843
head 10.9676 -7.41887 4.01916
rclavicle 1.39149e-014 -1.55052e-014
rhumerus 57.5632 9.5728 -44.3891
rradius 29.2213
rwrist 34.1299
rhand -31.7911 2.87372
rfingers 7.12502
rthumb -5.047 -27.0462
lclavicle 1.39149e-014 -1.55052e-014
lhumerus -58.6837 37.1373 17.5422
lradius 18.0173
lwrist 12.5684
lhand -26.93 37.9564
lfingers 7.12502
lthumb -0.352484 67.9359
rfemur -28.4539 -30.5777 28.9102
rtibia 39.7762
rfoot -39.6235 -25.3629
rtoes 4.47004
lfemur -52.1217 -22.427 -3.37293
ltibia 35.3567
lfoot -1.75497 -33.8123
ltoes 6.93839
4354
root -1.34969 17.2801 0.0762027 19.2824 59.501 -2.38779
lowerback 11.846 9.35355 -1.73087
upperback 3.5807 12.0944 -4.27676
thorax -2.1658 6.07263 -5.08821
lowerneck -16.1988 -13.0241 -16.5826
upperneck 18.6155 -16.1351 10.8943
head 10.9568 -7.49251 3.98811
rclavicle -8.07066e-014 2.18663e-014
rhumerus 57.6409 9.50699 -44.509
rradius 29.2406
rwrist 34.1547
rhand -31.6104 2.8015
rfingers 7.12502
rthumb -4.87251 -27.1225
lclavicle -8.07066e-014 2.18663e-014
lhumerus -58.9303 37.153 17.5467
lradius 18.1985
lwrist 12.574
lhand -26.8609 38.0498
lfingers 7.12502
lthumb -0.285769 68.0293
rfemur -28.8652 -30.8881 29.2215
rtibia 39.7476
rfoot -39.5166 -25.3343
rtoes 4.95518
lfemur -52.579 -22.4666 -3.22349
ltibia 35.3529
lfoot -1.26256 -33.956
ltoes 7.75467
4355
root -1.34802 17.2773 0.0644011 19.1143 59.7838 -2.5859
lowerback 11.9597 9.28042 -1.21081
upperback 3.61574 12.0579 -4.32624
thorax -2.07601 6.06175 -5.4156
lowerneck -16.1071 -13.1689 -16.444
upperneck 18.5131 -16.4064 10.99
head 10.9397 -7.60118 3.95181
rclavicle 1.06151e-013 3.18055e-015
rhumerus 57.6922 9.42459 -44.3119
rradius 29.3445
rwrist 33.8544
rhand -31.562 2.36852
rfingers 7.12502
rthumb -4.82582 -27.5565
lclavicle 1.06151e-013 3.18055e-015
lhumerus -59.1299 37.4339 17.2134
lradius 18.0885
lwrist 12.1513
lhand -26.5763 38.1884
lfingers 7.12502
lthumb -0.0108225 68.1681
rfemur -28.8902 -31.1063 29.3975
rtibia 39.6957
rfoot -39.374 -25.4674
rtoes 4.5968
lfemur -52.6791 -22.4481 -3.198
ltibia 35.3879
lfoot -0.895228 -34.1104
ltoes 8.54414
4356
root -1.34774 17.2791 0.0645828 18.9475 59.9049 -2.71278
lowerback 12.084 9.32859 -0.998003
upperback 3.65032 12.144 -4.30647
thorax -2.05994 6.10674 -5.53301
lowerneck -15.7846 -13.3257 -16.5316
upperneck 18.3288 -16.6825 11.1665
head 10.8809 -7.72913 3.98754
rclavicle 1.47101e-014 -3.10104e-014
rhumerus 57.7912 9.23651 -44.2134
rradius 29.1896
rwrist 33.7908
rhand -31.5023 2.55338
rfingers 7.12502
rthumb -4.76812 -27.373
lclavicle 1.47101e-014 -3.10104e-014
lhumerus -59.2724 37.5591 17.0528
lradius 17.9312
lwrist 11.8044
lhand -26.4748 38.2391
lfingers 7.12502
lthumb 0.087132 68.2188
rfemur -28.7852 -31.1463 29.4445
rtibia 39.6575
rfoot -39.3717 -25.4887
rtoes 4.57941
lfemur -52.619 -22.4177 -3.23469
ltibia 35.3875
lfoot -0.817204 -34.2071
ltoes 8.54271
4357
root -1.34623 17.2793 0.0674729 18.8294 60.0646 -2.92537
lowerback 12.105 9.31759 -0.819187
upperback 3.65387 12.1508 -4.24931
thorax -2.04327 6.11038 -5.57016
lowerneck -15.5393 -13.4138 -16.7307
upperneck 18.1623 -16.8335 11.3831
head 10.8398 -7.80089 4.07511
rclavicle -5.92378e-014 3.57812e-014
rhumerus 57.8772 9.26331 -43.8132
rradius 29.2872
rwrist 33.5433
rhand -31.5872 2.62614
rfingers 7.12502
rthumb -4.85013 -27.2984
lclavicle -5.92378e-014 3.57812e-014
lhumerus -59.5258 37.4172 17.1434
lradius 17.9643
lwrist 12.0055
lhand -26.0936 38.0565
lfingers 7.12502
lthumb 0.455385 68.0357
rfemur -28.8229 -31.2599 29.6411
rtibia 39.5806
rfoot -39.3779 -25.397
rtoes 4.84432
lfemur -52.7079 -22.4048 -3.10866
ltibia 35.3752
lfoot -0.815118 -34.2879
ltoes 8.21949
4358
root -1.34431 17.2776 0.0707171 19.0177 60.1766 -2.80746
lowerback 12.0851 9.22455 -0.864772
upperback 3.66726 12.0243 -4.22479
thorax -2.04425 6.04673 -5.50217
lowerneck -15.6102 -13.4195 -16.7838
upperneck 18.2763 -16.8399 11.4375
head 10.9066 -7.79715 4.09727
rclavicle 1.10524e-013 -3.22031e-014
rhumerus 58.206 9.44454 -43.8795
rradius 29.2657
rwrist 33.5613
rhand -31.4324 2.33224
rfingers 7.12502
rthumb -4.70069 -27.5956
lclavicle 1.10524e-013 -3.22031e-014
lhumerus -60.0709 37.2066 17.1424
lradius 18.1313
lwrist 12.4968
lhand -25.8925 38.0904
lfingers 7.12502
lthumb 0.649579 68.0692
rfemur -28.9034 -31.3337 29.6539
rtibia 39.5081
rfoot -39.4803 -25.2728
rtoes 5.28937
lfemur -52.8146 -22.4262 -3.14923
ltibia 35.35
lfoot -0.654196 -34.2809
ltoes 8.63239
4359
root -1.34063 17.2803 0.0755621 19.1525 60.1989 -2.65941
lowerback 12.2013 9.46555 -0.731956
upperback 3.80479 12.3609 -4.54771
thorax -1.82988 6.23151 -5.94229
lowerneck -16.0227 -13.7648 -15.9522
upperneck 18.2764 -17.4872 11.4582
head 11.0009 -8.01693 3.83071
rclavicle 2.3059e-014 -3.18055e-015
rhumerus 57.9685 8.4238 -44.5115
rradius 29.03
rwrist 34.0007
rhand -31.5482 2.59739
rfingers 7.12502
rthumb -4.81245 -27.328
lclavicle 2.3059e-014 -3.18055e-015
lhumerus -59.223 37.5252 17.1244
lradius 17.8395
lwrist 11.8822
lhand -26.3544 37.9033
lfingers 7.12502
lthumb 0.203451 67.8829
rfemur -28.8552 -31.3226 29.5467
rtibia 39.435
rfoot -39.5289 -25.1898
rtoes 5.56779
lfemur -52.7861 -22.4222 -3.27523
ltibia 35.3228
lfoot -0.582831 -34.2648
ltoes 8.85458
